<svg id="Layer_1" data-name="Layer 1" xmlns="http://www.w3.org/2000/svg" viewBox="0 0 87.91 31.38"><defs><style>.cls-1{fill:#4d4c4d;}.cls-2{fill:#2fc0d5;}</style></defs><title>logo</title><path class="cls-1" d="M272.33,202.79v21.33H269V202.79h-7.74v-3h19.14v3Z" transform="translate(-261.27 -193.15)"/><path class="cls-1" d="M272,205.36h-8.47v-2.63h14.67v2.63Z" transform="translate(-261.27 -193.15)"/><path class="cls-2" d="M276.78,196.64v-3.49h2.63v6h-2.63Z" transform="translate(-261.27 -193.15)"/><path class="cls-1" d="M294.84,214.76v9.36h-3.32V199.8q3.77-.17,4.55-.17,10.59,0,10.59,7.09,0,8.2-9.36,8.2Q296.73,214.93,294.84,214.76Zm0-12v9l2.22.17q6.18,0,6.18-4.86,0-4.45-6.59-4.45A13.42,13.42,0,0,0,294.84,202.79Z" transform="translate(-261.27 -193.15)"/><path class="cls-1" d="M324,224.12l-6.49-10.44q-1.11,0-3.52-.17v10.61h-3.32V199.8l2.58-.12q2.4-.12,3.5-.12,8.77,0,8.77,7a6.6,6.6,0,0,1-1.41,4.13,5.87,5.87,0,0,1-3.35,2.28l7.06,11.19Zm-10-21.33v7.9a16.86,16.86,0,0,0,2.32.17,7.66,7.66,0,0,0,4.35-1,3.93,3.93,0,0,0,1.36-3.44,3.18,3.18,0,0,0-1.46-2.94,9.11,9.11,0,0,0-4.62-.9Q315.42,202.62,314,202.79Z" transform="translate(-261.27 -193.15)"/><path class="cls-1" d="M328.93,211.75a14.36,14.36,0,0,1,2.65-8.83,8.46,8.46,0,0,1,7.15-3.55q5.06,0,7.76,3.27t2.7,9.11q0,6-2.71,9.39a9.34,9.34,0,0,1-7.75,3.4,8.39,8.39,0,0,1-7.2-3.59A15.29,15.29,0,0,1,328.93,211.75Zm3.49,0a13.58,13.58,0,0,0,1.65,7,5.15,5.15,0,0,0,4.66,2.81,5.92,5.92,0,0,0,5.19-2.57,12.55,12.55,0,0,0,1.78-7.22q0-9.4-7-9.4a5.23,5.23,0,0,0-4.7,2.52A12.68,12.68,0,0,0,332.41,211.75Z" transform="translate(-261.27 -193.15)"/><rect class="cls-2" x="76.57" y="14" width="2.42" height="2.42"/><rect class="cls-2" x="76.57" y="22.08" width="2.42" height="2.42"/><path class="cls-1" d="M279.5,206.65" transform="translate(-261.27 -193.15)"/><path class="cls-1" d="M260.5,206.65" transform="translate(-261.27 -193.15)"/><path class="cls-2" d="M262.27,196.64v-3.49h2.63v6h-2.63Z" transform="translate(-261.27 -193.15)"/><path class="cls-1" d="M282.31,212.94h3.49v2.63h-6v-2.63Z" transform="translate(-261.27 -193.15)"/></svg>